<mxfile host="app.diagrams.net" modified="2023-08-07T09:06:28.322Z" agent="Mozilla/5.0 (Windows NT 10.0; Win64; x64) AppleWebKit/537.36 (KHTML, like Gecko) Chrome/115.0.0.0 Safari/537.36" etag="E6NyKq8z7yi0MdqOweEy" version="21.6.6" type="github">
  <diagram name="페이지-1" id="irY8QsZj3-x4BCbuFpfG">
    <mxGraphModel dx="1750" dy="890" grid="1" gridSize="10" guides="1" tooltips="1" connect="1" arrows="1" fold="1" page="1" pageScale="1" pageWidth="4681" pageHeight="3300" math="0" shadow="0">
      <root>
        <mxCell id="0" />
        <mxCell id="1" parent="0" />
        <mxCell id="p8-Uz5ln503tdnN1WDIG-1" value="아이디" style="ellipse;whiteSpace=wrap;html=1;fillColor=#dae8fc;strokeColor=#6c8ebf;fontSize=14;fontStyle=4" vertex="1" parent="1">
          <mxGeometry x="1020" y="561" width="100" height="40" as="geometry" />
        </mxCell>
        <mxCell id="p8-Uz5ln503tdnN1WDIG-2" value="작성" style="rhombus;whiteSpace=wrap;html=1;fillColor=#bac8d3;strokeColor=none;fontSize=15;" vertex="1" parent="1">
          <mxGeometry x="1665" y="676" width="100" height="60" as="geometry" />
        </mxCell>
        <mxCell id="p8-Uz5ln503tdnN1WDIG-3" value="회원" style="rounded=0;whiteSpace=wrap;html=1;fillColor=#4e8fe4;strokeColor=none;fontSize=15;" vertex="1" parent="1">
          <mxGeometry x="1240" y="686" width="100" height="40" as="geometry" />
        </mxCell>
        <mxCell id="p8-Uz5ln503tdnN1WDIG-5" value="피드백" style="rounded=0;whiteSpace=wrap;html=1;fillColor=#4e8fe4;strokeColor=none;fontSize=15;" vertex="1" parent="1">
          <mxGeometry x="2070" y="680" width="100" height="40" as="geometry" />
        </mxCell>
        <mxCell id="p8-Uz5ln503tdnN1WDIG-6" value="추천 향수" style="rhombus;whiteSpace=wrap;html=1;fillColor=#bac8d3;strokeColor=none;fontSize=15;" vertex="1" parent="1">
          <mxGeometry x="2070" y="1205" width="100" height="60" as="geometry" />
        </mxCell>
        <mxCell id="p8-Uz5ln503tdnN1WDIG-8" value="비밀번호" style="ellipse;whiteSpace=wrap;html=1;fillColor=#dae8fc;strokeColor=#6c8ebf;fontSize=14;" vertex="1" parent="1">
          <mxGeometry x="1020" y="611" width="100" height="40" as="geometry" />
        </mxCell>
        <mxCell id="p8-Uz5ln503tdnN1WDIG-9" value="이름" style="ellipse;whiteSpace=wrap;html=1;fillColor=#dae8fc;strokeColor=#6c8ebf;fontSize=14;" vertex="1" parent="1">
          <mxGeometry x="1020" y="661" width="100" height="40" as="geometry" />
        </mxCell>
        <mxCell id="p8-Uz5ln503tdnN1WDIG-10" value="생년월일" style="ellipse;whiteSpace=wrap;html=1;fillColor=#dae8fc;strokeColor=#6c8ebf;fontSize=14;" vertex="1" parent="1">
          <mxGeometry x="1020" y="711" width="100" height="40" as="geometry" />
        </mxCell>
        <mxCell id="p8-Uz5ln503tdnN1WDIG-11" value="성별" style="ellipse;whiteSpace=wrap;html=1;fillColor=#dae8fc;strokeColor=#6c8ebf;fontSize=14;" vertex="1" parent="1">
          <mxGeometry x="1020" y="761" width="100" height="40" as="geometry" />
        </mxCell>
        <mxCell id="p8-Uz5ln503tdnN1WDIG-12" value="전화번호" style="ellipse;whiteSpace=wrap;html=1;fillColor=#dae8fc;strokeColor=#6c8ebf;fontSize=14;" vertex="1" parent="1">
          <mxGeometry x="1020" y="811" width="100" height="40" as="geometry" />
        </mxCell>
        <mxCell id="p8-Uz5ln503tdnN1WDIG-13" value="" style="endArrow=none;html=1;rounded=0;entryX=1;entryY=0.5;entryDx=0;entryDy=0;exitX=0;exitY=0.5;exitDx=0;exitDy=0;" edge="1" parent="1" source="p8-Uz5ln503tdnN1WDIG-3" target="p8-Uz5ln503tdnN1WDIG-1">
          <mxGeometry width="50" height="50" relative="1" as="geometry">
            <mxPoint x="1310" y="776" as="sourcePoint" />
            <mxPoint x="1360" y="726" as="targetPoint" />
          </mxGeometry>
        </mxCell>
        <mxCell id="p8-Uz5ln503tdnN1WDIG-14" value="" style="endArrow=none;html=1;rounded=0;entryX=1;entryY=0.5;entryDx=0;entryDy=0;exitX=0;exitY=0.5;exitDx=0;exitDy=0;" edge="1" parent="1" source="p8-Uz5ln503tdnN1WDIG-3" target="p8-Uz5ln503tdnN1WDIG-8">
          <mxGeometry width="50" height="50" relative="1" as="geometry">
            <mxPoint x="1220" y="716" as="sourcePoint" />
            <mxPoint x="1140" y="636" as="targetPoint" />
          </mxGeometry>
        </mxCell>
        <mxCell id="p8-Uz5ln503tdnN1WDIG-15" value="" style="endArrow=none;html=1;rounded=0;entryX=1;entryY=0.5;entryDx=0;entryDy=0;exitX=0;exitY=0.5;exitDx=0;exitDy=0;" edge="1" parent="1" source="p8-Uz5ln503tdnN1WDIG-3" target="p8-Uz5ln503tdnN1WDIG-9">
          <mxGeometry width="50" height="50" relative="1" as="geometry">
            <mxPoint x="1260" y="726" as="sourcePoint" />
            <mxPoint x="1150" y="646" as="targetPoint" />
          </mxGeometry>
        </mxCell>
        <mxCell id="p8-Uz5ln503tdnN1WDIG-16" value="" style="endArrow=none;html=1;rounded=0;entryX=1;entryY=0.5;entryDx=0;entryDy=0;exitX=0;exitY=0.5;exitDx=0;exitDy=0;" edge="1" parent="1" source="p8-Uz5ln503tdnN1WDIG-3" target="p8-Uz5ln503tdnN1WDIG-10">
          <mxGeometry width="50" height="50" relative="1" as="geometry">
            <mxPoint x="1270" y="736" as="sourcePoint" />
            <mxPoint x="1160" y="656" as="targetPoint" />
          </mxGeometry>
        </mxCell>
        <mxCell id="p8-Uz5ln503tdnN1WDIG-17" value="" style="endArrow=none;html=1;rounded=0;entryX=1;entryY=0.5;entryDx=0;entryDy=0;exitX=0;exitY=0.5;exitDx=0;exitDy=0;" edge="1" parent="1" source="p8-Uz5ln503tdnN1WDIG-3" target="p8-Uz5ln503tdnN1WDIG-11">
          <mxGeometry width="50" height="50" relative="1" as="geometry">
            <mxPoint x="1280" y="746" as="sourcePoint" />
            <mxPoint x="1170" y="666" as="targetPoint" />
          </mxGeometry>
        </mxCell>
        <mxCell id="p8-Uz5ln503tdnN1WDIG-18" value="" style="endArrow=none;html=1;rounded=0;entryX=1;entryY=0.5;entryDx=0;entryDy=0;exitX=0;exitY=0.5;exitDx=0;exitDy=0;" edge="1" parent="1" source="p8-Uz5ln503tdnN1WDIG-3" target="p8-Uz5ln503tdnN1WDIG-12">
          <mxGeometry width="50" height="50" relative="1" as="geometry">
            <mxPoint x="1290" y="756" as="sourcePoint" />
            <mxPoint x="1180" y="676" as="targetPoint" />
          </mxGeometry>
        </mxCell>
        <mxCell id="p8-Uz5ln503tdnN1WDIG-19" value="고유번호" style="ellipse;whiteSpace=wrap;html=1;fillColor=#dae8fc;strokeColor=#6c8ebf;fontSize=14;fontStyle=4" vertex="1" parent="1">
          <mxGeometry x="2270" y="494" width="100" height="40" as="geometry" />
        </mxCell>
        <mxCell id="p8-Uz5ln503tdnN1WDIG-20" value="제목" style="ellipse;whiteSpace=wrap;html=1;fillColor=#dae8fc;strokeColor=#6c8ebf;fontSize=14;" vertex="1" parent="1">
          <mxGeometry x="2270" y="540" width="100" height="40" as="geometry" />
        </mxCell>
        <mxCell id="p8-Uz5ln503tdnN1WDIG-22" value="내용" style="ellipse;whiteSpace=wrap;html=1;fillColor=#dae8fc;strokeColor=#6c8ebf;fontSize=14;" vertex="1" parent="1">
          <mxGeometry x="2270" y="586" width="100" height="40" as="geometry" />
        </mxCell>
        <mxCell id="p8-Uz5ln503tdnN1WDIG-23" value="날짜" style="ellipse;whiteSpace=wrap;html=1;fillColor=#dae8fc;strokeColor=#6c8ebf;fontSize=14;" vertex="1" parent="1">
          <mxGeometry x="2270" y="633" width="100" height="40" as="geometry" />
        </mxCell>
        <mxCell id="p8-Uz5ln503tdnN1WDIG-24" value="회원아이디" style="ellipse;whiteSpace=wrap;html=1;fillColor=#dae8fc;strokeColor=#6c8ebf;fontSize=14;" vertex="1" parent="1">
          <mxGeometry x="2270" y="680" width="100" height="40" as="geometry" />
        </mxCell>
        <mxCell id="p8-Uz5ln503tdnN1WDIG-25" value="향수사진" style="ellipse;whiteSpace=wrap;html=1;fillColor=#dae8fc;strokeColor=#6c8ebf;fontSize=14;" vertex="1" parent="1">
          <mxGeometry x="2270" y="727" width="100" height="40" as="geometry" />
        </mxCell>
        <mxCell id="p8-Uz5ln503tdnN1WDIG-26" value="조회수" style="ellipse;whiteSpace=wrap;html=1;fillColor=#dae8fc;strokeColor=#6c8ebf;fontSize=14;" vertex="1" parent="1">
          <mxGeometry x="2270" y="773" width="100" height="40" as="geometry" />
        </mxCell>
        <mxCell id="p8-Uz5ln503tdnN1WDIG-27" value="좋아요수" style="ellipse;whiteSpace=wrap;html=1;fillColor=#dae8fc;strokeColor=#6c8ebf;fontSize=14;" vertex="1" parent="1">
          <mxGeometry x="2270" y="820" width="100" height="40" as="geometry" />
        </mxCell>
        <mxCell id="p8-Uz5ln503tdnN1WDIG-28" value="향수고유번호" style="ellipse;whiteSpace=wrap;html=1;fillColor=#dae8fc;strokeColor=#6c8ebf;fontSize=14;" vertex="1" parent="1">
          <mxGeometry x="2270" y="866" width="100" height="40" as="geometry" />
        </mxCell>
        <mxCell id="p8-Uz5ln503tdnN1WDIG-29" value="" style="endArrow=none;html=1;rounded=0;entryX=0;entryY=0.5;entryDx=0;entryDy=0;exitX=1;exitY=0.5;exitDx=0;exitDy=0;" edge="1" parent="1" source="p8-Uz5ln503tdnN1WDIG-5" target="p8-Uz5ln503tdnN1WDIG-19">
          <mxGeometry width="50" height="50" relative="1" as="geometry">
            <mxPoint x="2170" y="611" as="sourcePoint" />
            <mxPoint x="2220" y="561" as="targetPoint" />
          </mxGeometry>
        </mxCell>
        <mxCell id="p8-Uz5ln503tdnN1WDIG-30" value="" style="endArrow=none;html=1;rounded=0;entryX=0;entryY=0.5;entryDx=0;entryDy=0;exitX=1;exitY=0.5;exitDx=0;exitDy=0;" edge="1" parent="1" source="p8-Uz5ln503tdnN1WDIG-5" target="p8-Uz5ln503tdnN1WDIG-20">
          <mxGeometry width="50" height="50" relative="1" as="geometry">
            <mxPoint x="2180" y="710" as="sourcePoint" />
            <mxPoint x="2280" y="549" as="targetPoint" />
          </mxGeometry>
        </mxCell>
        <mxCell id="p8-Uz5ln503tdnN1WDIG-31" value="" style="endArrow=none;html=1;rounded=0;entryX=0;entryY=0.5;entryDx=0;entryDy=0;exitX=1;exitY=0.5;exitDx=0;exitDy=0;" edge="1" parent="1" source="p8-Uz5ln503tdnN1WDIG-5" target="p8-Uz5ln503tdnN1WDIG-22">
          <mxGeometry width="50" height="50" relative="1" as="geometry">
            <mxPoint x="2190" y="720" as="sourcePoint" />
            <mxPoint x="2290" y="559" as="targetPoint" />
          </mxGeometry>
        </mxCell>
        <mxCell id="p8-Uz5ln503tdnN1WDIG-32" value="" style="endArrow=none;html=1;rounded=0;entryX=0;entryY=0.5;entryDx=0;entryDy=0;exitX=1;exitY=0.5;exitDx=0;exitDy=0;" edge="1" parent="1" source="p8-Uz5ln503tdnN1WDIG-5" target="p8-Uz5ln503tdnN1WDIG-23">
          <mxGeometry width="50" height="50" relative="1" as="geometry">
            <mxPoint x="2200" y="730" as="sourcePoint" />
            <mxPoint x="2300" y="569" as="targetPoint" />
          </mxGeometry>
        </mxCell>
        <mxCell id="p8-Uz5ln503tdnN1WDIG-33" value="" style="endArrow=none;html=1;rounded=0;entryX=0;entryY=0.5;entryDx=0;entryDy=0;exitX=1;exitY=0.5;exitDx=0;exitDy=0;" edge="1" parent="1" source="p8-Uz5ln503tdnN1WDIG-5" target="p8-Uz5ln503tdnN1WDIG-24">
          <mxGeometry width="50" height="50" relative="1" as="geometry">
            <mxPoint x="2190" y="740" as="sourcePoint" />
            <mxPoint x="2310" y="579" as="targetPoint" />
          </mxGeometry>
        </mxCell>
        <mxCell id="p8-Uz5ln503tdnN1WDIG-34" value="" style="endArrow=none;html=1;rounded=0;entryX=0;entryY=0.5;entryDx=0;entryDy=0;exitX=1;exitY=0.5;exitDx=0;exitDy=0;" edge="1" parent="1" source="p8-Uz5ln503tdnN1WDIG-5" target="p8-Uz5ln503tdnN1WDIG-25">
          <mxGeometry width="50" height="50" relative="1" as="geometry">
            <mxPoint x="2180" y="710" as="sourcePoint" />
            <mxPoint x="2280" y="735" as="targetPoint" />
          </mxGeometry>
        </mxCell>
        <mxCell id="p8-Uz5ln503tdnN1WDIG-35" value="" style="endArrow=none;html=1;rounded=0;entryX=0;entryY=0.5;entryDx=0;entryDy=0;exitX=1;exitY=0.5;exitDx=0;exitDy=0;" edge="1" parent="1" source="p8-Uz5ln503tdnN1WDIG-5" target="p8-Uz5ln503tdnN1WDIG-26">
          <mxGeometry width="50" height="50" relative="1" as="geometry">
            <mxPoint x="2190" y="720" as="sourcePoint" />
            <mxPoint x="2290" y="745" as="targetPoint" />
          </mxGeometry>
        </mxCell>
        <mxCell id="p8-Uz5ln503tdnN1WDIG-36" value="" style="endArrow=none;html=1;rounded=0;entryX=0;entryY=0.5;entryDx=0;entryDy=0;exitX=1;exitY=0.5;exitDx=0;exitDy=0;" edge="1" parent="1" source="p8-Uz5ln503tdnN1WDIG-5" target="p8-Uz5ln503tdnN1WDIG-27">
          <mxGeometry width="50" height="50" relative="1" as="geometry">
            <mxPoint x="2180" y="810" as="sourcePoint" />
            <mxPoint x="2300" y="755" as="targetPoint" />
          </mxGeometry>
        </mxCell>
        <mxCell id="p8-Uz5ln503tdnN1WDIG-37" value="" style="endArrow=none;html=1;rounded=0;entryX=0;entryY=0.5;entryDx=0;entryDy=0;exitX=1;exitY=0.5;exitDx=0;exitDy=0;" edge="1" parent="1" source="p8-Uz5ln503tdnN1WDIG-5" target="p8-Uz5ln503tdnN1WDIG-28">
          <mxGeometry width="50" height="50" relative="1" as="geometry">
            <mxPoint x="2160" y="780" as="sourcePoint" />
            <mxPoint x="2310" y="765" as="targetPoint" />
          </mxGeometry>
        </mxCell>
        <mxCell id="p8-Uz5ln503tdnN1WDIG-38" value="판매매장" style="rounded=0;whiteSpace=wrap;html=1;fillColor=#4e8fe4;strokeColor=none;fontSize=15;" vertex="1" parent="1">
          <mxGeometry x="2070" y="1049" width="100" height="40" as="geometry" />
        </mxCell>
        <mxCell id="p8-Uz5ln503tdnN1WDIG-39" value="매장명" style="ellipse;whiteSpace=wrap;html=1;fillColor=#dae8fc;strokeColor=#6c8ebf;fontSize=14;" vertex="1" parent="1">
          <mxGeometry x="2270" y="1019" width="100" height="40" as="geometry" />
        </mxCell>
        <mxCell id="p8-Uz5ln503tdnN1WDIG-40" value="매장 순번" style="ellipse;whiteSpace=wrap;html=1;fillColor=#dae8fc;strokeColor=#6c8ebf;fontSize=14;fontStyle=4" vertex="1" parent="1">
          <mxGeometry x="2270" y="969" width="100" height="40" as="geometry" />
        </mxCell>
        <mxCell id="p8-Uz5ln503tdnN1WDIG-41" value="매장전화번호" style="ellipse;whiteSpace=wrap;html=1;fillColor=#dae8fc;strokeColor=#6c8ebf;fontSize=14;" vertex="1" parent="1">
          <mxGeometry x="2270" y="1069" width="100" height="40" as="geometry" />
        </mxCell>
        <mxCell id="p8-Uz5ln503tdnN1WDIG-42" value="매장주소" style="ellipse;whiteSpace=wrap;html=1;fillColor=#dae8fc;strokeColor=#6c8ebf;fontSize=14;" vertex="1" parent="1">
          <mxGeometry x="2270" y="1119" width="100" height="40" as="geometry" />
        </mxCell>
        <mxCell id="p8-Uz5ln503tdnN1WDIG-43" value="대표자" style="ellipse;whiteSpace=wrap;html=1;fillColor=#dae8fc;strokeColor=#6c8ebf;fontSize=14;" vertex="1" parent="1">
          <mxGeometry x="2270" y="1169" width="100" height="40" as="geometry" />
        </mxCell>
        <mxCell id="p8-Uz5ln503tdnN1WDIG-44" value="시향" style="rounded=0;whiteSpace=wrap;html=1;fillColor=#4e8fe4;strokeColor=none;fontSize=15;" vertex="1" parent="1">
          <mxGeometry x="1240" y="390" width="100" height="40" as="geometry" />
        </mxCell>
        <mxCell id="p8-Uz5ln503tdnN1WDIG-45" value="회원고유번호" style="ellipse;whiteSpace=wrap;html=1;fillColor=#dae8fc;strokeColor=#6c8ebf;fontSize=14;fontStyle=4" vertex="1" parent="1">
          <mxGeometry x="1020" y="310" width="100" height="40" as="geometry" />
        </mxCell>
        <mxCell id="p8-Uz5ln503tdnN1WDIG-46" value="회원아이디" style="ellipse;whiteSpace=wrap;html=1;fillColor=#dae8fc;strokeColor=#6c8ebf;fontSize=14;" vertex="1" parent="1">
          <mxGeometry x="1020" y="360" width="100" height="40" as="geometry" />
        </mxCell>
        <mxCell id="p8-Uz5ln503tdnN1WDIG-47" value="향수 2" style="ellipse;whiteSpace=wrap;html=1;fillColor=#dae8fc;strokeColor=#6c8ebf;fontSize=14;" vertex="1" parent="1">
          <mxGeometry x="1020" y="460" width="100" height="40" as="geometry" />
        </mxCell>
        <mxCell id="p8-Uz5ln503tdnN1WDIG-48" value="향수 1" style="ellipse;whiteSpace=wrap;html=1;fillColor=#dae8fc;strokeColor=#6c8ebf;fontSize=14;" vertex="1" parent="1">
          <mxGeometry x="1020" y="410" width="100" height="40" as="geometry" />
        </mxCell>
        <mxCell id="p8-Uz5ln503tdnN1WDIG-49" value="" style="endArrow=none;html=1;rounded=0;entryX=1;entryY=0.5;entryDx=0;entryDy=0;exitX=0;exitY=0.5;exitDx=0;exitDy=0;" edge="1" parent="1" source="p8-Uz5ln503tdnN1WDIG-44" target="p8-Uz5ln503tdnN1WDIG-45">
          <mxGeometry width="50" height="50" relative="1" as="geometry">
            <mxPoint x="1410" y="550" as="sourcePoint" />
            <mxPoint x="1460" y="500" as="targetPoint" />
          </mxGeometry>
        </mxCell>
        <mxCell id="p8-Uz5ln503tdnN1WDIG-50" value="" style="endArrow=none;html=1;rounded=0;entryX=1;entryY=0.5;entryDx=0;entryDy=0;exitX=0;exitY=0.5;exitDx=0;exitDy=0;" edge="1" parent="1" source="p8-Uz5ln503tdnN1WDIG-44" target="p8-Uz5ln503tdnN1WDIG-46">
          <mxGeometry width="50" height="50" relative="1" as="geometry">
            <mxPoint x="1250" y="420" as="sourcePoint" />
            <mxPoint x="1130" y="330" as="targetPoint" />
          </mxGeometry>
        </mxCell>
        <mxCell id="p8-Uz5ln503tdnN1WDIG-51" value="" style="endArrow=none;html=1;rounded=0;entryX=1;entryY=0.5;entryDx=0;entryDy=0;exitX=0;exitY=0.5;exitDx=0;exitDy=0;" edge="1" parent="1" source="p8-Uz5ln503tdnN1WDIG-44" target="p8-Uz5ln503tdnN1WDIG-48">
          <mxGeometry width="50" height="50" relative="1" as="geometry">
            <mxPoint x="1260" y="430" as="sourcePoint" />
            <mxPoint x="1140" y="340" as="targetPoint" />
          </mxGeometry>
        </mxCell>
        <mxCell id="p8-Uz5ln503tdnN1WDIG-52" value="" style="endArrow=none;html=1;rounded=0;exitX=0;exitY=0.5;exitDx=0;exitDy=0;entryX=1;entryY=0.5;entryDx=0;entryDy=0;" edge="1" parent="1" source="p8-Uz5ln503tdnN1WDIG-44" target="p8-Uz5ln503tdnN1WDIG-47">
          <mxGeometry width="50" height="50" relative="1" as="geometry">
            <mxPoint x="1270" y="440" as="sourcePoint" />
            <mxPoint x="1150" y="470" as="targetPoint" />
          </mxGeometry>
        </mxCell>
        <mxCell id="p8-Uz5ln503tdnN1WDIG-53" value="매니저" style="rounded=0;whiteSpace=wrap;html=1;fillColor=#4e8fe4;strokeColor=none;fontSize=15;" vertex="1" parent="1">
          <mxGeometry x="2070" y="1390" width="100" height="40" as="geometry" />
        </mxCell>
        <mxCell id="p8-Uz5ln503tdnN1WDIG-55" value="고유번호" style="ellipse;whiteSpace=wrap;html=1;fillColor=#dae8fc;strokeColor=#6c8ebf;fontSize=14;fontStyle=4" vertex="1" parent="1">
          <mxGeometry x="2270" y="1315" width="100" height="40" as="geometry" />
        </mxCell>
        <mxCell id="p8-Uz5ln503tdnN1WDIG-56" value="매니저명" style="ellipse;whiteSpace=wrap;html=1;fillColor=#dae8fc;strokeColor=#6c8ebf;fontSize=14;" vertex="1" parent="1">
          <mxGeometry x="2270" y="1365" width="100" height="40" as="geometry" />
        </mxCell>
        <mxCell id="p8-Uz5ln503tdnN1WDIG-57" value="" style="endArrow=none;html=1;rounded=0;entryX=0;entryY=0.5;entryDx=0;entryDy=0;exitX=1;exitY=0.5;exitDx=0;exitDy=0;" edge="1" parent="1" source="p8-Uz5ln503tdnN1WDIG-38" target="p8-Uz5ln503tdnN1WDIG-40">
          <mxGeometry width="50" height="50" relative="1" as="geometry">
            <mxPoint x="2130" y="922" as="sourcePoint" />
            <mxPoint x="2230" y="969" as="targetPoint" />
          </mxGeometry>
        </mxCell>
        <mxCell id="p8-Uz5ln503tdnN1WDIG-58" value="" style="endArrow=none;html=1;rounded=0;entryX=0;entryY=0.5;entryDx=0;entryDy=0;exitX=1;exitY=0.5;exitDx=0;exitDy=0;" edge="1" parent="1" source="p8-Uz5ln503tdnN1WDIG-38" target="p8-Uz5ln503tdnN1WDIG-39">
          <mxGeometry width="50" height="50" relative="1" as="geometry">
            <mxPoint x="2180" y="1059" as="sourcePoint" />
            <mxPoint x="2280" y="999" as="targetPoint" />
          </mxGeometry>
        </mxCell>
        <mxCell id="p8-Uz5ln503tdnN1WDIG-59" value="" style="endArrow=none;html=1;rounded=0;entryX=0;entryY=0.5;entryDx=0;entryDy=0;exitX=1;exitY=0.5;exitDx=0;exitDy=0;" edge="1" parent="1" source="p8-Uz5ln503tdnN1WDIG-38" target="p8-Uz5ln503tdnN1WDIG-41">
          <mxGeometry width="50" height="50" relative="1" as="geometry">
            <mxPoint x="2190" y="1069" as="sourcePoint" />
            <mxPoint x="2290" y="1009" as="targetPoint" />
          </mxGeometry>
        </mxCell>
        <mxCell id="p8-Uz5ln503tdnN1WDIG-60" value="" style="endArrow=none;html=1;rounded=0;entryX=0;entryY=0.5;entryDx=0;entryDy=0;exitX=1;exitY=0.5;exitDx=0;exitDy=0;" edge="1" parent="1" source="p8-Uz5ln503tdnN1WDIG-38" target="p8-Uz5ln503tdnN1WDIG-42">
          <mxGeometry width="50" height="50" relative="1" as="geometry">
            <mxPoint x="2200" y="1079" as="sourcePoint" />
            <mxPoint x="2300" y="1019" as="targetPoint" />
          </mxGeometry>
        </mxCell>
        <mxCell id="p8-Uz5ln503tdnN1WDIG-61" value="" style="endArrow=none;html=1;rounded=0;entryX=0;entryY=0.5;entryDx=0;entryDy=0;exitX=1;exitY=0.5;exitDx=0;exitDy=0;" edge="1" parent="1" source="p8-Uz5ln503tdnN1WDIG-38" target="p8-Uz5ln503tdnN1WDIG-43">
          <mxGeometry width="50" height="50" relative="1" as="geometry">
            <mxPoint x="2170" y="1099" as="sourcePoint" />
            <mxPoint x="2310" y="1029" as="targetPoint" />
          </mxGeometry>
        </mxCell>
        <mxCell id="p8-Uz5ln503tdnN1WDIG-62" value="매장순번" style="ellipse;whiteSpace=wrap;html=1;fillColor=#dae8fc;strokeColor=#6c8ebf;fontSize=14;" vertex="1" parent="1">
          <mxGeometry x="2270" y="1415" width="100" height="40" as="geometry" />
        </mxCell>
        <mxCell id="p8-Uz5ln503tdnN1WDIG-63" value="매니저전화번호" style="ellipse;whiteSpace=wrap;html=1;fillColor=#dae8fc;strokeColor=#6c8ebf;fontSize=13;" vertex="1" parent="1">
          <mxGeometry x="2270" y="1465" width="100" height="40" as="geometry" />
        </mxCell>
        <mxCell id="p8-Uz5ln503tdnN1WDIG-65" value="" style="endArrow=none;html=1;rounded=0;entryX=0;entryY=0.5;entryDx=0;entryDy=0;exitX=1;exitY=0.5;exitDx=0;exitDy=0;" edge="1" parent="1" source="p8-Uz5ln503tdnN1WDIG-53" target="p8-Uz5ln503tdnN1WDIG-63">
          <mxGeometry width="50" height="50" relative="1" as="geometry">
            <mxPoint x="2150" y="1310" as="sourcePoint" />
            <mxPoint x="2250" y="1430" as="targetPoint" />
          </mxGeometry>
        </mxCell>
        <mxCell id="p8-Uz5ln503tdnN1WDIG-66" value="" style="endArrow=none;html=1;rounded=0;entryX=0;entryY=0.5;entryDx=0;entryDy=0;exitX=1;exitY=0.5;exitDx=0;exitDy=0;" edge="1" parent="1" source="p8-Uz5ln503tdnN1WDIG-53" target="p8-Uz5ln503tdnN1WDIG-62">
          <mxGeometry width="50" height="50" relative="1" as="geometry">
            <mxPoint x="2180" y="1420" as="sourcePoint" />
            <mxPoint x="2280" y="1450" as="targetPoint" />
          </mxGeometry>
        </mxCell>
        <mxCell id="p8-Uz5ln503tdnN1WDIG-67" value="" style="endArrow=none;html=1;rounded=0;entryX=0;entryY=0.5;entryDx=0;entryDy=0;exitX=1;exitY=0.5;exitDx=0;exitDy=0;" edge="1" parent="1" source="p8-Uz5ln503tdnN1WDIG-53" target="p8-Uz5ln503tdnN1WDIG-56">
          <mxGeometry width="50" height="50" relative="1" as="geometry">
            <mxPoint x="2190" y="1430" as="sourcePoint" />
            <mxPoint x="2290" y="1460" as="targetPoint" />
          </mxGeometry>
        </mxCell>
        <mxCell id="p8-Uz5ln503tdnN1WDIG-68" value="" style="endArrow=none;html=1;rounded=0;entryX=0;entryY=0.5;entryDx=0;entryDy=0;exitX=1;exitY=0.5;exitDx=0;exitDy=0;" edge="1" parent="1" source="p8-Uz5ln503tdnN1WDIG-53" target="p8-Uz5ln503tdnN1WDIG-55">
          <mxGeometry width="50" height="50" relative="1" as="geometry">
            <mxPoint x="2200" y="1440" as="sourcePoint" />
            <mxPoint x="2300" y="1470" as="targetPoint" />
          </mxGeometry>
        </mxCell>
        <mxCell id="p8-Uz5ln503tdnN1WDIG-79" value="향수정보" style="rounded=0;whiteSpace=wrap;html=1;fillColor=#4e8fe4;strokeColor=none;fontSize=15;" vertex="1" parent="1">
          <mxGeometry x="1240" y="1056" width="100" height="40" as="geometry" />
        </mxCell>
        <mxCell id="p8-Uz5ln503tdnN1WDIG-80" value="고유번호" style="ellipse;whiteSpace=wrap;html=1;fillColor=#dae8fc;strokeColor=#6c8ebf;fontSize=14;fontStyle=4" vertex="1" parent="1">
          <mxGeometry x="1020" y="921" width="100" height="40" as="geometry" />
        </mxCell>
        <mxCell id="p8-Uz5ln503tdnN1WDIG-81" value="향수이름" style="ellipse;whiteSpace=wrap;html=1;fillColor=#dae8fc;strokeColor=#6c8ebf;fontSize=14;" vertex="1" parent="1">
          <mxGeometry x="1020" y="975" width="100" height="40" as="geometry" />
        </mxCell>
        <mxCell id="p8-Uz5ln503tdnN1WDIG-82" value="수량" style="ellipse;whiteSpace=wrap;html=1;fillColor=#dae8fc;strokeColor=#6c8ebf;fontSize=14;" vertex="1" parent="1">
          <mxGeometry x="1020" y="1025" width="100" height="40" as="geometry" />
        </mxCell>
        <mxCell id="p8-Uz5ln503tdnN1WDIG-83" value="가격" style="ellipse;whiteSpace=wrap;html=1;fillColor=#dae8fc;strokeColor=#6c8ebf;fontSize=14;" vertex="1" parent="1">
          <mxGeometry x="1020" y="1075" width="100" height="40" as="geometry" />
        </mxCell>
        <mxCell id="p8-Uz5ln503tdnN1WDIG-84" value="향수 계열" style="ellipse;whiteSpace=wrap;html=1;fillColor=#dae8fc;strokeColor=#6c8ebf;fontSize=14;" vertex="1" parent="1">
          <mxGeometry x="1020" y="1125" width="100" height="40" as="geometry" />
        </mxCell>
        <mxCell id="p8-Uz5ln503tdnN1WDIG-85" value="향수 사진" style="ellipse;whiteSpace=wrap;html=1;fillColor=#dae8fc;strokeColor=#6c8ebf;fontSize=14;" vertex="1" parent="1">
          <mxGeometry x="1020" y="1175" width="100" height="40" as="geometry" />
        </mxCell>
        <mxCell id="p8-Uz5ln503tdnN1WDIG-86" value="비밀번호" style="ellipse;whiteSpace=wrap;html=1;fillColor=#dae8fc;strokeColor=#6c8ebf;fontSize=14;" vertex="1" parent="1">
          <mxGeometry x="1020" y="1225" width="100" height="40" as="geometry" />
        </mxCell>
        <mxCell id="p8-Uz5ln503tdnN1WDIG-87" value="" style="endArrow=none;html=1;rounded=0;entryX=1;entryY=0.5;entryDx=0;entryDy=0;exitX=0;exitY=0.5;exitDx=0;exitDy=0;" edge="1" parent="1" source="p8-Uz5ln503tdnN1WDIG-79" target="p8-Uz5ln503tdnN1WDIG-80">
          <mxGeometry width="50" height="50" relative="1" as="geometry">
            <mxPoint x="1250" y="716" as="sourcePoint" />
            <mxPoint x="1130" y="841" as="targetPoint" />
          </mxGeometry>
        </mxCell>
        <mxCell id="p8-Uz5ln503tdnN1WDIG-88" value="" style="endArrow=none;html=1;rounded=0;entryX=1;entryY=0.5;entryDx=0;entryDy=0;exitX=0;exitY=0.5;exitDx=0;exitDy=0;" edge="1" parent="1" source="p8-Uz5ln503tdnN1WDIG-79" target="p8-Uz5ln503tdnN1WDIG-81">
          <mxGeometry width="50" height="50" relative="1" as="geometry">
            <mxPoint x="1210" y="1046" as="sourcePoint" />
            <mxPoint x="1130" y="902" as="targetPoint" />
          </mxGeometry>
        </mxCell>
        <mxCell id="p8-Uz5ln503tdnN1WDIG-89" value="" style="endArrow=none;html=1;rounded=0;entryX=1;entryY=0.5;entryDx=0;entryDy=0;exitX=0;exitY=0.5;exitDx=0;exitDy=0;" edge="1" parent="1" source="p8-Uz5ln503tdnN1WDIG-79" target="p8-Uz5ln503tdnN1WDIG-82">
          <mxGeometry width="50" height="50" relative="1" as="geometry">
            <mxPoint x="1260" y="1066" as="sourcePoint" />
            <mxPoint x="1140" y="912" as="targetPoint" />
          </mxGeometry>
        </mxCell>
        <mxCell id="p8-Uz5ln503tdnN1WDIG-90" value="" style="endArrow=none;html=1;rounded=0;entryX=1;entryY=0.5;entryDx=0;entryDy=0;exitX=0;exitY=0.5;exitDx=0;exitDy=0;" edge="1" parent="1" source="p8-Uz5ln503tdnN1WDIG-79" target="p8-Uz5ln503tdnN1WDIG-83">
          <mxGeometry width="50" height="50" relative="1" as="geometry">
            <mxPoint x="1270" y="1076" as="sourcePoint" />
            <mxPoint x="1150" y="922" as="targetPoint" />
          </mxGeometry>
        </mxCell>
        <mxCell id="p8-Uz5ln503tdnN1WDIG-91" value="" style="endArrow=none;html=1;rounded=0;entryX=1;entryY=0.5;entryDx=0;entryDy=0;exitX=0;exitY=0.5;exitDx=0;exitDy=0;" edge="1" parent="1" source="p8-Uz5ln503tdnN1WDIG-79" target="p8-Uz5ln503tdnN1WDIG-84">
          <mxGeometry width="50" height="50" relative="1" as="geometry">
            <mxPoint x="1280" y="1086" as="sourcePoint" />
            <mxPoint x="1160" y="932" as="targetPoint" />
          </mxGeometry>
        </mxCell>
        <mxCell id="p8-Uz5ln503tdnN1WDIG-92" value="" style="endArrow=none;html=1;rounded=0;exitX=0;exitY=0.5;exitDx=0;exitDy=0;entryX=1;entryY=0.5;entryDx=0;entryDy=0;" edge="1" parent="1" source="p8-Uz5ln503tdnN1WDIG-79" target="p8-Uz5ln503tdnN1WDIG-85">
          <mxGeometry width="50" height="50" relative="1" as="geometry">
            <mxPoint x="1290" y="1096" as="sourcePoint" />
            <mxPoint x="1170" y="1146" as="targetPoint" />
          </mxGeometry>
        </mxCell>
        <mxCell id="p8-Uz5ln503tdnN1WDIG-93" value="" style="endArrow=none;html=1;rounded=0;entryX=1;entryY=0.5;entryDx=0;entryDy=0;exitX=0;exitY=0.5;exitDx=0;exitDy=0;" edge="1" parent="1" source="p8-Uz5ln503tdnN1WDIG-79" target="p8-Uz5ln503tdnN1WDIG-86">
          <mxGeometry width="50" height="50" relative="1" as="geometry">
            <mxPoint x="1300" y="1106" as="sourcePoint" />
            <mxPoint x="1180" y="952" as="targetPoint" />
          </mxGeometry>
        </mxCell>
        <mxCell id="p8-Uz5ln503tdnN1WDIG-94" value="향수상태저장" style="rounded=0;whiteSpace=wrap;html=1;fillColor=#4e8fe4;strokeColor=none;fontSize=15;" vertex="1" parent="1">
          <mxGeometry x="1665" y="920" width="100" height="40" as="geometry" />
        </mxCell>
        <mxCell id="p8-Uz5ln503tdnN1WDIG-95" value="추천향수" style="rhombus;whiteSpace=wrap;html=1;fillColor=#bac8d3;strokeColor=none;fontSize=15;" vertex="1" parent="1">
          <mxGeometry x="1240" y="848" width="100" height="60" as="geometry" />
        </mxCell>
        <mxCell id="p8-Uz5ln503tdnN1WDIG-96" value="회원아이디" style="ellipse;whiteSpace=wrap;html=1;fillColor=#dae8fc;strokeColor=#6c8ebf;fontSize=14;" vertex="1" parent="1">
          <mxGeometry x="1370" y="833.5" width="100" height="40" as="geometry" />
        </mxCell>
        <mxCell id="p8-Uz5ln503tdnN1WDIG-97" value="추천 순번" style="ellipse;whiteSpace=wrap;html=1;fillColor=#dae8fc;strokeColor=#6c8ebf;fontSize=14;fontStyle=4" vertex="1" parent="1">
          <mxGeometry x="1370" y="782.5" width="100" height="40" as="geometry" />
        </mxCell>
        <mxCell id="p8-Uz5ln503tdnN1WDIG-98" value="향수고유번호" style="ellipse;whiteSpace=wrap;html=1;fillColor=#dae8fc;strokeColor=#6c8ebf;fontSize=14;" vertex="1" parent="1">
          <mxGeometry x="1370" y="883.5" width="100" height="40" as="geometry" />
        </mxCell>
        <mxCell id="p8-Uz5ln503tdnN1WDIG-99" value="추천일자" style="ellipse;whiteSpace=wrap;html=1;fillColor=#dae8fc;strokeColor=#6c8ebf;fontSize=14;" vertex="1" parent="1">
          <mxGeometry x="1370" y="933.5" width="100" height="40" as="geometry" />
        </mxCell>
        <mxCell id="p8-Uz5ln503tdnN1WDIG-100" value="" style="endArrow=none;html=1;rounded=0;entryX=1;entryY=0.5;entryDx=0;entryDy=0;exitX=0;exitY=0.5;exitDx=0;exitDy=0;" edge="1" parent="1" source="p8-Uz5ln503tdnN1WDIG-97" target="p8-Uz5ln503tdnN1WDIG-95">
          <mxGeometry width="50" height="50" relative="1" as="geometry">
            <mxPoint x="1580.0000000000064" y="801" as="sourcePoint" />
            <mxPoint x="1340" y="837" as="targetPoint" />
          </mxGeometry>
        </mxCell>
        <mxCell id="p8-Uz5ln503tdnN1WDIG-101" value="" style="endArrow=none;html=1;rounded=0;entryX=1;entryY=0.5;entryDx=0;entryDy=0;exitX=0;exitY=0.5;exitDx=0;exitDy=0;" edge="1" parent="1" source="p8-Uz5ln503tdnN1WDIG-96" target="p8-Uz5ln503tdnN1WDIG-95">
          <mxGeometry width="50" height="50" relative="1" as="geometry">
            <mxPoint x="1640" y="792" as="sourcePoint" />
            <mxPoint x="1550" y="882" as="targetPoint" />
          </mxGeometry>
        </mxCell>
        <mxCell id="p8-Uz5ln503tdnN1WDIG-102" value="" style="endArrow=none;html=1;rounded=0;entryX=1;entryY=0.5;entryDx=0;entryDy=0;exitX=0;exitY=0.5;exitDx=0;exitDy=0;" edge="1" parent="1" source="p8-Uz5ln503tdnN1WDIG-98" target="p8-Uz5ln503tdnN1WDIG-95">
          <mxGeometry width="50" height="50" relative="1" as="geometry">
            <mxPoint x="1650" y="802" as="sourcePoint" />
            <mxPoint x="1560" y="892" as="targetPoint" />
          </mxGeometry>
        </mxCell>
        <mxCell id="p8-Uz5ln503tdnN1WDIG-103" value="" style="endArrow=none;html=1;rounded=0;exitX=0;exitY=0.5;exitDx=0;exitDy=0;entryX=1;entryY=0.5;entryDx=0;entryDy=0;" edge="1" parent="1" source="p8-Uz5ln503tdnN1WDIG-99" target="p8-Uz5ln503tdnN1WDIG-95">
          <mxGeometry width="50" height="50" relative="1" as="geometry">
            <mxPoint x="1660" y="812" as="sourcePoint" />
            <mxPoint x="1540" y="872" as="targetPoint" />
          </mxGeometry>
        </mxCell>
        <mxCell id="p8-Uz5ln503tdnN1WDIG-106" value="위치순번" style="ellipse;whiteSpace=wrap;fillColor=#dae8fc;strokeColor=#6c8ebf;fontSize=14;fontStyle=4" vertex="1" parent="1">
          <mxGeometry x="1500" y="847" width="100" height="40" as="geometry" />
        </mxCell>
        <mxCell id="p8-Uz5ln503tdnN1WDIG-107" value="향수고유번호" style="ellipse;whiteSpace=wrap;fillColor=#dae8fc;strokeColor=#6c8ebf;fontSize=14;" vertex="1" parent="1">
          <mxGeometry x="1830" y="847" width="100" height="40" as="geometry" />
        </mxCell>
        <mxCell id="p8-Uz5ln503tdnN1WDIG-108" value="향수상태" style="ellipse;whiteSpace=wrap;fillColor=#dae8fc;strokeColor=#6c8ebf;fontSize=14;" vertex="1" parent="1">
          <mxGeometry x="1720" y="847" width="100" height="40" as="geometry" />
        </mxCell>
        <mxCell id="p8-Uz5ln503tdnN1WDIG-109" value="매장순번" style="ellipse;whiteSpace=wrap;fillColor=#dae8fc;strokeColor=#6c8ebf;fontSize=14;" vertex="1" parent="1">
          <mxGeometry x="1610" y="847" width="100" height="40" as="geometry" />
        </mxCell>
        <mxCell id="p8-Uz5ln503tdnN1WDIG-117" value="보유상품" style="rhombus;whiteSpace=wrap;html=1;fillColor=#bac8d3;strokeColor=none;fontSize=15;" vertex="1" parent="1">
          <mxGeometry x="1665" y="1039" width="100" height="60" as="geometry" />
        </mxCell>
        <mxCell id="p8-Uz5ln503tdnN1WDIG-118" value="상품 순번" style="ellipse;whiteSpace=wrap;html=1;fillColor=#dae8fc;strokeColor=#6c8ebf;fontSize=14;fontStyle=4" vertex="1" parent="1">
          <mxGeometry x="1500" y="1159" width="100" height="40" as="geometry" />
        </mxCell>
        <mxCell id="p8-Uz5ln503tdnN1WDIG-119" value="향수고유번호" style="ellipse;whiteSpace=wrap;html=1;fillColor=#dae8fc;strokeColor=#6c8ebf;fontSize=14;" vertex="1" parent="1">
          <mxGeometry x="1610" y="1159" width="100" height="40" as="geometry" />
        </mxCell>
        <mxCell id="p8-Uz5ln503tdnN1WDIG-120" value="매장순번" style="ellipse;whiteSpace=wrap;html=1;fillColor=#dae8fc;strokeColor=#6c8ebf;fontSize=14;" vertex="1" parent="1">
          <mxGeometry x="1720" y="1159" width="100" height="40" as="geometry" />
        </mxCell>
        <mxCell id="p8-Uz5ln503tdnN1WDIG-121" value="향수사진" style="ellipse;whiteSpace=wrap;html=1;fillColor=#dae8fc;strokeColor=#6c8ebf;fontSize=14;" vertex="1" parent="1">
          <mxGeometry x="1830" y="1159" width="100" height="40" as="geometry" />
        </mxCell>
        <mxCell id="p8-Uz5ln503tdnN1WDIG-122" value="" style="endArrow=none;html=1;rounded=0;entryX=0.5;entryY=0;entryDx=0;entryDy=0;exitX=0.5;exitY=1;exitDx=0;exitDy=0;" edge="1" parent="1" source="p8-Uz5ln503tdnN1WDIG-117" target="p8-Uz5ln503tdnN1WDIG-118">
          <mxGeometry width="50" height="50" relative="1" as="geometry">
            <mxPoint x="1395" y="1080" as="sourcePoint" />
            <mxPoint x="1275" y="1249" as="targetPoint" />
          </mxGeometry>
        </mxCell>
        <mxCell id="p8-Uz5ln503tdnN1WDIG-123" value="" style="endArrow=none;html=1;rounded=0;entryX=0.5;entryY=0;entryDx=0;entryDy=0;exitX=0.5;exitY=1;exitDx=0;exitDy=0;" edge="1" parent="1" source="p8-Uz5ln503tdnN1WDIG-117" target="p8-Uz5ln503tdnN1WDIG-119">
          <mxGeometry width="50" height="50" relative="1" as="geometry">
            <mxPoint x="1725" y="1109" as="sourcePoint" />
            <mxPoint x="1515" y="1160" as="targetPoint" />
          </mxGeometry>
        </mxCell>
        <mxCell id="p8-Uz5ln503tdnN1WDIG-124" value="" style="endArrow=none;html=1;rounded=0;entryX=0.5;entryY=0;entryDx=0;entryDy=0;exitX=0.5;exitY=1;exitDx=0;exitDy=0;" edge="1" parent="1" source="p8-Uz5ln503tdnN1WDIG-117" target="p8-Uz5ln503tdnN1WDIG-120">
          <mxGeometry width="50" height="50" relative="1" as="geometry">
            <mxPoint x="1735" y="1119" as="sourcePoint" />
            <mxPoint x="1525" y="1170" as="targetPoint" />
          </mxGeometry>
        </mxCell>
        <mxCell id="p8-Uz5ln503tdnN1WDIG-125" value="" style="endArrow=none;html=1;rounded=0;entryX=0.5;entryY=0;entryDx=0;entryDy=0;exitX=0.5;exitY=1;exitDx=0;exitDy=0;" edge="1" parent="1" source="p8-Uz5ln503tdnN1WDIG-117" target="p8-Uz5ln503tdnN1WDIG-121">
          <mxGeometry width="50" height="50" relative="1" as="geometry">
            <mxPoint x="1745" y="1129" as="sourcePoint" />
            <mxPoint x="1535" y="1180" as="targetPoint" />
          </mxGeometry>
        </mxCell>
        <mxCell id="p8-Uz5ln503tdnN1WDIG-126" value="" style="endArrow=none;html=1;rounded=0;entryX=0;entryY=0.5;entryDx=0;entryDy=0;exitX=1;exitY=0.5;exitDx=0;exitDy=0;" edge="1" parent="1" source="p8-Uz5ln503tdnN1WDIG-3" target="p8-Uz5ln503tdnN1WDIG-2">
          <mxGeometry relative="1" as="geometry">
            <mxPoint x="1580" y="624.41" as="sourcePoint" />
            <mxPoint x="1740" y="624.41" as="targetPoint" />
          </mxGeometry>
        </mxCell>
        <mxCell id="p8-Uz5ln503tdnN1WDIG-127" value="1" style="resizable=0;html=1;whiteSpace=wrap;align=right;verticalAlign=bottom;fontSize=15;" connectable="0" vertex="1" parent="p8-Uz5ln503tdnN1WDIG-126">
          <mxGeometry x="1" relative="1" as="geometry">
            <mxPoint x="-90" as="offset" />
          </mxGeometry>
        </mxCell>
        <mxCell id="p8-Uz5ln503tdnN1WDIG-128" value="" style="endArrow=none;html=1;rounded=0;entryX=0;entryY=0.5;entryDx=0;entryDy=0;exitX=1;exitY=0.5;exitDx=0;exitDy=0;" edge="1" parent="1" source="p8-Uz5ln503tdnN1WDIG-2" target="p8-Uz5ln503tdnN1WDIG-5">
          <mxGeometry relative="1" as="geometry">
            <mxPoint x="1820" y="724.71" as="sourcePoint" />
            <mxPoint x="1980" y="724.71" as="targetPoint" />
          </mxGeometry>
        </mxCell>
        <mxCell id="p8-Uz5ln503tdnN1WDIG-129" value="N" style="resizable=0;html=1;whiteSpace=wrap;align=right;verticalAlign=bottom;fontSize=15;" connectable="0" vertex="1" parent="p8-Uz5ln503tdnN1WDIG-128">
          <mxGeometry x="1" relative="1" as="geometry">
            <mxPoint x="-120" as="offset" />
          </mxGeometry>
        </mxCell>
        <mxCell id="p8-Uz5ln503tdnN1WDIG-130" value="" style="endArrow=none;html=1;rounded=0;entryX=0.5;entryY=1;entryDx=0;entryDy=0;exitX=0.5;exitY=0;exitDx=0;exitDy=0;" edge="1" parent="1" source="p8-Uz5ln503tdnN1WDIG-95" target="p8-Uz5ln503tdnN1WDIG-3">
          <mxGeometry relative="1" as="geometry">
            <mxPoint x="1340" y="856" as="sourcePoint" />
            <mxPoint x="1500" y="856" as="targetPoint" />
          </mxGeometry>
        </mxCell>
        <mxCell id="p8-Uz5ln503tdnN1WDIG-131" value="M" style="resizable=0;html=1;whiteSpace=wrap;align=right;verticalAlign=bottom;fontSize=15;" connectable="0" vertex="1" parent="p8-Uz5ln503tdnN1WDIG-130">
          <mxGeometry x="1" relative="1" as="geometry">
            <mxPoint x="20" y="73" as="offset" />
          </mxGeometry>
        </mxCell>
        <mxCell id="p8-Uz5ln503tdnN1WDIG-132" value="" style="shape=link;html=1;rounded=0;entryX=0.5;entryY=0;entryDx=0;entryDy=0;exitX=0.5;exitY=1;exitDx=0;exitDy=0;" edge="1" parent="1" source="p8-Uz5ln503tdnN1WDIG-95" target="p8-Uz5ln503tdnN1WDIG-79">
          <mxGeometry relative="1" as="geometry">
            <mxPoint x="1370" y="976" as="sourcePoint" />
            <mxPoint x="1530" y="976" as="targetPoint" />
          </mxGeometry>
        </mxCell>
        <mxCell id="p8-Uz5ln503tdnN1WDIG-133" value="N" style="resizable=0;html=1;whiteSpace=wrap;align=right;verticalAlign=bottom;fontSize=15;" connectable="0" vertex="1" parent="p8-Uz5ln503tdnN1WDIG-132">
          <mxGeometry x="1" relative="1" as="geometry">
            <mxPoint x="20" y="-61" as="offset" />
          </mxGeometry>
        </mxCell>
        <mxCell id="p8-Uz5ln503tdnN1WDIG-134" value="" style="endArrow=none;html=1;rounded=0;entryX=0;entryY=0.5;entryDx=0;entryDy=0;exitX=1;exitY=0.5;exitDx=0;exitDy=0;" edge="1" parent="1" source="p8-Uz5ln503tdnN1WDIG-79" target="p8-Uz5ln503tdnN1WDIG-117">
          <mxGeometry relative="1" as="geometry">
            <mxPoint x="1525" y="1008" as="sourcePoint" />
            <mxPoint x="1775" y="1008" as="targetPoint" />
          </mxGeometry>
        </mxCell>
        <mxCell id="p8-Uz5ln503tdnN1WDIG-135" value="N" style="resizable=0;html=1;whiteSpace=wrap;align=right;verticalAlign=bottom;fontSize=15;" connectable="0" vertex="1" parent="p8-Uz5ln503tdnN1WDIG-134">
          <mxGeometry x="1" relative="1" as="geometry">
            <mxPoint x="-80" as="offset" />
          </mxGeometry>
        </mxCell>
        <mxCell id="p8-Uz5ln503tdnN1WDIG-136" value="" style="endArrow=none;html=1;rounded=0;entryX=0;entryY=0.5;entryDx=0;entryDy=0;exitX=1;exitY=0.5;exitDx=0;exitDy=0;" edge="1" parent="1" source="p8-Uz5ln503tdnN1WDIG-117" target="p8-Uz5ln503tdnN1WDIG-38">
          <mxGeometry relative="1" as="geometry">
            <mxPoint x="1860" y="1020" as="sourcePoint" />
            <mxPoint x="2040" y="1020" as="targetPoint" />
          </mxGeometry>
        </mxCell>
        <mxCell id="p8-Uz5ln503tdnN1WDIG-137" value="1" style="resizable=0;html=1;whiteSpace=wrap;align=right;verticalAlign=bottom;fontSize=15;" connectable="0" vertex="1" parent="p8-Uz5ln503tdnN1WDIG-136">
          <mxGeometry x="1" relative="1" as="geometry">
            <mxPoint x="-120" as="offset" />
          </mxGeometry>
        </mxCell>
        <mxCell id="p8-Uz5ln503tdnN1WDIG-138" value="" style="endArrow=none;html=1;rounded=0;entryX=0.5;entryY=0;entryDx=0;entryDy=0;" edge="1" parent="1" source="p8-Uz5ln503tdnN1WDIG-38" target="p8-Uz5ln503tdnN1WDIG-6">
          <mxGeometry relative="1" as="geometry">
            <mxPoint x="1550" y="1080" as="sourcePoint" />
            <mxPoint x="1730" y="1079" as="targetPoint" />
          </mxGeometry>
        </mxCell>
        <mxCell id="p8-Uz5ln503tdnN1WDIG-139" value="N" style="resizable=0;html=1;whiteSpace=wrap;align=right;verticalAlign=bottom;fontSize=15;" connectable="0" vertex="1" parent="p8-Uz5ln503tdnN1WDIG-138">
          <mxGeometry x="1" relative="1" as="geometry">
            <mxPoint x="-10" y="-46" as="offset" />
          </mxGeometry>
        </mxCell>
        <mxCell id="p8-Uz5ln503tdnN1WDIG-140" value="" style="endArrow=none;html=1;rounded=0;entryX=0.5;entryY=0;entryDx=0;entryDy=0;exitX=0.5;exitY=1;exitDx=0;exitDy=0;" edge="1" parent="1" source="p8-Uz5ln503tdnN1WDIG-6" target="p8-Uz5ln503tdnN1WDIG-53">
          <mxGeometry relative="1" as="geometry">
            <mxPoint x="1830" y="1079" as="sourcePoint" />
            <mxPoint x="2080" y="1079" as="targetPoint" />
          </mxGeometry>
        </mxCell>
        <mxCell id="p8-Uz5ln503tdnN1WDIG-141" value="1" style="resizable=0;html=1;whiteSpace=wrap;align=right;verticalAlign=bottom;fontSize=15;" connectable="0" vertex="1" parent="p8-Uz5ln503tdnN1WDIG-140">
          <mxGeometry x="1" relative="1" as="geometry">
            <mxPoint x="-10" y="-50" as="offset" />
          </mxGeometry>
        </mxCell>
        <mxCell id="p8-Uz5ln503tdnN1WDIG-146" value="" style="shape=link;html=1;rounded=0;entryX=0.5;entryY=0;entryDx=0;entryDy=0;exitX=0.5;exitY=1;exitDx=0;exitDy=0;" edge="1" parent="1" source="p8-Uz5ln503tdnN1WDIG-44" target="p8-Uz5ln503tdnN1WDIG-3">
          <mxGeometry relative="1" as="geometry">
            <mxPoint x="1430" y="626" as="sourcePoint" />
            <mxPoint x="1590" y="626" as="targetPoint" />
          </mxGeometry>
        </mxCell>
        <mxCell id="p8-Uz5ln503tdnN1WDIG-147" value="M" style="resizable=0;html=1;whiteSpace=wrap;align=left;verticalAlign=bottom;fontSize=15;" connectable="0" vertex="1" parent="p8-Uz5ln503tdnN1WDIG-146">
          <mxGeometry x="-1" relative="1" as="geometry">
            <mxPoint x="13" y="26" as="offset" />
          </mxGeometry>
        </mxCell>
        <mxCell id="p8-Uz5ln503tdnN1WDIG-148" value="N" style="resizable=0;html=1;whiteSpace=wrap;align=right;verticalAlign=bottom;fontSize=15;" connectable="0" vertex="1" parent="p8-Uz5ln503tdnN1WDIG-146">
          <mxGeometry x="1" relative="1" as="geometry">
            <mxPoint x="30" as="offset" />
          </mxGeometry>
        </mxCell>
        <mxCell id="p8-Uz5ln503tdnN1WDIG-149" value="" style="shape=link;html=1;rounded=0;exitX=0;exitY=0.5;exitDx=0;exitDy=0;entryX=1;entryY=0;entryDx=0;entryDy=0;" edge="1" parent="1" source="p8-Uz5ln503tdnN1WDIG-94" target="p8-Uz5ln503tdnN1WDIG-79">
          <mxGeometry relative="1" as="geometry">
            <mxPoint x="1500" y="912" as="sourcePoint" />
            <mxPoint x="1580" y="1040" as="targetPoint" />
          </mxGeometry>
        </mxCell>
        <mxCell id="p8-Uz5ln503tdnN1WDIG-150" value="N" style="resizable=0;html=1;whiteSpace=wrap;align=right;verticalAlign=bottom;fontSize=15;" connectable="0" vertex="1" parent="p8-Uz5ln503tdnN1WDIG-149">
          <mxGeometry x="1" relative="1" as="geometry">
            <mxPoint x="200" y="-66" as="offset" />
          </mxGeometry>
        </mxCell>
        <mxCell id="p8-Uz5ln503tdnN1WDIG-151" value="" style="endArrow=none;html=1;rounded=0;entryX=1;entryY=0.5;entryDx=0;entryDy=0;exitX=0;exitY=0;exitDx=0;exitDy=0;" edge="1" parent="1" source="p8-Uz5ln503tdnN1WDIG-38" target="p8-Uz5ln503tdnN1WDIG-94">
          <mxGeometry relative="1" as="geometry">
            <mxPoint x="2000" y="971" as="sourcePoint" />
            <mxPoint x="2000" y="849" as="targetPoint" />
          </mxGeometry>
        </mxCell>
        <mxCell id="p8-Uz5ln503tdnN1WDIG-152" value="M" style="resizable=0;html=1;whiteSpace=wrap;align=right;verticalAlign=bottom;fontSize=15;" connectable="0" vertex="1" parent="p8-Uz5ln503tdnN1WDIG-151">
          <mxGeometry x="1" relative="1" as="geometry">
            <mxPoint x="135" y="49" as="offset" />
          </mxGeometry>
        </mxCell>
        <mxCell id="p8-Uz5ln503tdnN1WDIG-153" value="" style="endArrow=none;html=1;rounded=0;entryX=0.5;entryY=0;entryDx=0;entryDy=0;exitX=0.5;exitY=1;exitDx=0;exitDy=0;" edge="1" parent="1" source="p8-Uz5ln503tdnN1WDIG-106" target="p8-Uz5ln503tdnN1WDIG-94">
          <mxGeometry width="50" height="50" relative="1" as="geometry">
            <mxPoint x="1735" y="798" as="sourcePoint" />
            <mxPoint x="1695" y="870" as="targetPoint" />
          </mxGeometry>
        </mxCell>
        <mxCell id="p8-Uz5ln503tdnN1WDIG-154" value="" style="endArrow=none;html=1;rounded=0;entryX=0.5;entryY=0;entryDx=0;entryDy=0;exitX=0.5;exitY=1;exitDx=0;exitDy=0;" edge="1" parent="1" source="p8-Uz5ln503tdnN1WDIG-109" target="p8-Uz5ln503tdnN1WDIG-94">
          <mxGeometry width="50" height="50" relative="1" as="geometry">
            <mxPoint x="1650" y="901" as="sourcePoint" />
            <mxPoint x="1725" y="930" as="targetPoint" />
          </mxGeometry>
        </mxCell>
        <mxCell id="p8-Uz5ln503tdnN1WDIG-155" value="" style="endArrow=none;html=1;rounded=0;entryX=0.5;entryY=0;entryDx=0;entryDy=0;exitX=0.5;exitY=1;exitDx=0;exitDy=0;" edge="1" parent="1" source="p8-Uz5ln503tdnN1WDIG-108" target="p8-Uz5ln503tdnN1WDIG-94">
          <mxGeometry width="50" height="50" relative="1" as="geometry">
            <mxPoint x="1660" y="911" as="sourcePoint" />
            <mxPoint x="1735" y="940" as="targetPoint" />
          </mxGeometry>
        </mxCell>
        <mxCell id="p8-Uz5ln503tdnN1WDIG-156" value="" style="endArrow=none;html=1;rounded=0;entryX=0.5;entryY=0;entryDx=0;entryDy=0;exitX=0.5;exitY=1;exitDx=0;exitDy=0;" edge="1" parent="1" source="p8-Uz5ln503tdnN1WDIG-107" target="p8-Uz5ln503tdnN1WDIG-94">
          <mxGeometry width="50" height="50" relative="1" as="geometry">
            <mxPoint x="1870" y="901" as="sourcePoint" />
            <mxPoint x="1725" y="930" as="targetPoint" />
          </mxGeometry>
        </mxCell>
      </root>
    </mxGraphModel>
  </diagram>
</mxfile>
